<?xml version="1.0" encoding="utf-8"?>
<!-- Generator: Adobe Illustrator 23.0.3, SVG Export Plug-In . SVG Version: 6.00 Build 0)  -->
<svg version="1.1" id="Layer_1" xmlns="http://www.w3.org/2000/svg" xmlns:xlink="http://www.w3.org/1999/xlink" x="0px" y="0px"
	 viewBox="0 0 595.28 510.24" style="enable-background:new 0 0 595.28 510.24;" xml:space="preserve">
<style type="text/css">
	.st0{fill-rule:evenodd;clip-rule:evenodd;}
	.st1{fill-rule:evenodd;clip-rule:evenodd;fill:url(#SVGID_1_);}
	.st2{fill-rule:evenodd;clip-rule:evenodd;fill:#C82027;}
	.st3{fill-rule:evenodd;clip-rule:evenodd;fill:#010101;}
</style>
<g>
	<g>
		<g>
			<path class="st0" d="M306.34,275.81c2.84,17.58-4.93,28.52-20.55,36.23c-40.14,19.81-80.12,21.37-118.58-2.41
				c-37.86-23.41-57.13-58.39-55.66-103.43c1.71-52.62,38.31-97.24,89.15-109.8c1.99-0.49,4.63,0.36,5.75-2.35
				c91.98,0,183.95,0,275.93,0c0.09,25.96-11.9,41.3-37.61,47.16c-10.78,2.46-21.75,4.16-32.72,5.6c-5.14,0.67-6.83,2.56-6.87,7.77
				c-0.33,43.3,4.13,31.95-30.94,57.74c-6.09,4.48-12.42,8.64-19.3,13.41c-2.2-7.52-1.01-14.42-1.09-21.18
				c-0.2-17.1-0.35-34.21,0.07-51.31c0.16-6.62-1.81-8.64-8.51-8.58c-38.33,0.34-76.65,0.06-114.98,0.35
				c-29.65,0.22-53.88,16.84-63.45,42.88c-9.58,26.05-1.47,53.5,21.63,73.24c6.87,6.25,15.2,10.08,23.53,13.78
				c21.91,9.74,42.63,5.73,59.84-11.1c2.11-2.06,3.41-5.36,8.08-5.74c0.29,4.38,0.57,8.66,0.87,12.93c0.26,3.56,1.65,6.25,5.73,5.95
				C293.22,276.44,299.91,278.25,306.34,275.81z"/>
			<path class="st0" d="M306.34,275.81c-6.43,2.44-13.12,0.62-19.67,1.1c-4.08,0.3-5.47-2.39-5.73-5.95
				c-0.31-4.27-0.58-8.55-0.87-12.93c-4.67,0.39-5.97,3.68-8.08,5.74c-17.21,16.83-37.93,20.84-59.84,11.1
				c-8.33-3.7-16.67-7.53-23.53-13.78c7.96-2.19,15.69,0.26,23.37,1.49c21.67,3.47,34.04-1.72,45.65-20.41
				c3.83-6.16,6.84-12.81,10.38-19.15c3.06-5.48,2.01-8.08-4.67-7.94c-9.8,0.21-19.62-0.08-29.42,0.19
				c-5.78,0.16-8.22-2.1-7.45-7.89c0.33-2.5,0.42-5.05,0.41-7.57c-0.07-16.47-0.09-16.46,16.01-16.47c18.67-0.01,37.33,0.01,56-0.09
				c4.53-0.02,8.3,0.34,8.19,6.31C306.58,218.3,308.15,247.07,306.34,275.81z"/>
			<path class="st0" d="M350.02,265.13c0.06-17.08,11.41-27.91,29.01-27.69c15.97,0.2,26.3,10.88,26.27,27.17
				c-0.03,16.88-11.09,28.24-27.62,28.35C360.61,293.08,349.96,282.37,350.02,265.13z"/>
		</g>
		<g>
			<linearGradient id="SVGID_1_" gradientUnits="userSpaceOnUse" x1="125.3776" y1="205.4697" x2="469.2913" y2="205.4697">
				<stop  offset="5.617980e-03" style="stop-color:#171717"/>
				<stop  offset="0.1135" style="stop-color:#484848"/>
				<stop  offset="0.2523" style="stop-color:#818181"/>
				<stop  offset="0.319" style="stop-color:#989898"/>
				<stop  offset="0.3299" style="stop-color:#9D9D9D"/>
				<stop  offset="0.4098" style="stop-color:#BFBFBF"/>
				<stop  offset="0.4757" style="stop-color:#D4D4D4"/>
				<stop  offset="0.5191" style="stop-color:#DCDCDC"/>
				<stop  offset="0.5777" style="stop-color:#BDBDBD"/>
				<stop  offset="0.7295" style="stop-color:#737373"/>
				<stop  offset="0.8554" style="stop-color:#3D3D3D"/>
				<stop  offset="0.949" style="stop-color:#1C1C1C"/>
				<stop  offset="1" style="stop-color:#0F0F0F"/>
			</linearGradient>
			<path class="st1" d="M306.07,265.93c2.63,16.3-4.57,26.44-19.06,33.59c-37.22,18.37-74.29,19.81-109.95-2.23
				c-35.11-21.71-52.97-54.15-51.61-95.91c1.58-48.79,35.52-90.17,82.66-101.81c1.84-0.45,4.29,0.33,5.33-2.18
				c85.29,0,170.57,0,255.85,0c0.09,24.07-11.04,38.3-34.87,43.73c-9.99,2.28-20.17,3.86-30.34,5.19c-4.77,0.63-6.34,2.37-6.37,7.2
				c-0.3,40.15,3.83,29.62-28.69,53.54c-5.65,4.15-11.51,8.01-17.89,12.43c-2.04-6.97-0.94-13.37-1.01-19.64
				c-0.19-15.86-0.32-31.73,0.07-47.58c0.15-6.14-1.68-8.01-7.89-7.95c-35.54,0.31-71.08,0.06-106.61,0.32
				c-27.5,0.21-49.96,15.62-58.83,39.76c-8.88,24.15-1.36,49.61,20.06,67.91c6.37,5.79,14.09,9.34,21.82,12.78
				c20.32,9.03,39.53,5.31,55.49-10.29c1.95-1.91,3.16-4.97,7.49-5.32c0.27,4.06,0.52,8.03,0.81,11.99c0.24,3.3,1.53,5.79,5.31,5.52
				C293.9,266.5,300.1,268.19,306.07,265.93z"/>
			<path class="st2" d="M306.07,265.93c-5.97,2.26-12.16,0.58-18.23,1.02c-3.78,0.28-5.08-2.21-5.31-5.52
				c-0.29-3.96-0.54-7.93-0.81-11.99c-4.33,0.36-5.54,3.41-7.49,5.32c-15.96,15.61-35.17,19.32-55.49,10.29
				c-7.73-3.43-15.45-6.99-21.82-12.78c7.38-2.03,14.55,0.24,21.67,1.38c20.09,3.22,31.56-1.59,42.33-18.93
				c3.55-5.71,6.34-11.88,9.62-17.76c2.84-5.08,1.86-7.49-4.33-7.36c-9.09,0.19-18.19-0.07-27.28,0.17
				c-5.36,0.15-7.62-1.95-6.91-7.32c0.31-2.32,0.39-4.68,0.38-7.02c-0.07-15.27-0.08-15.26,14.85-15.27
				c17.31-0.01,34.62,0.01,51.93-0.09c4.2-0.02,7.7,0.31,7.6,5.85C306.29,212.6,307.75,239.28,306.07,265.93z"/>
			<path class="st2" d="M347.35,262.02c0.06-15.84,10.58-25.88,26.9-25.67c14.81,0.19,24.38,10.09,24.36,25.19
				c-0.03,15.65-10.28,26.18-25.61,26.29C357.16,287.94,347.29,278,347.35,262.02z"/>
		</g>
	</g>
	<g>
		<path class="st3" d="M80.67,373.17c2.47-1.97,2.44-5.16,3.75-7.71c4.62-9.05,11.35-14.34,22.03-13.93
			c8.22,0.31,16.47,0.34,24.68-0.04c5.45-0.25,4.49,3.3,4.19,6.19c-0.3,2.94,2.41,7.77-4.14,7.61c-7.17-0.18-14.35-0.05-21.52-0.03
			c-1.68,0.01-3.42-0.09-5.04,0.27c-5.89,1.29-9.38,9.39-8.68,19.83c0.62,9.23,4.57,15.21,10.69,15.73
			c3.78,0.32,7.59,0.17,11.39,0.26c3.61,0.08,5.51-1.71,5.72-5.26c0.23-3.9-1.76-5.76-5.57-6.18c-1.94-0.22-5.09,1.22-5.58-1.28
			c-0.71-3.63-0.24-7.54,0.01-11.31c0.08-1.16,1.58-1.03,2.61-1.19c11.21-1.77,18.44,2.45,23.66,13.39c0-3.54-0.23-7.1,0.05-10.62
			c0.72-9.16,3.83-17.35,11.16-23.27c7.45-6.02,37.39-5.9,45.03-0.06c4.7,3.59,7.56,8.53,9.35,14c2.69,8.19,2.92,16.64,0.96,24.99
			c-3.37,14.36-11.36,20.5-26.03,20.52c-3.59,0.01-7.18,0-10.76,0c-17.64,0-22.2-3.07-29.26-20.26c-0.64,2.89-1.04,5.15-1.64,7.35
			c-2.25,8.29-7.92,12.74-16.5,12.89c-4.85,0.09-9.71,0.03-14.56,0.02c-12.1-0.04-18.78-4.54-23.36-15.64
			c-0.69-1.67-0.57-3.82-2.64-4.73C80.67,387.53,80.67,380.35,80.67,373.17z M173.2,401.14c4.24-0.63,9.85,1.8,13.92-3.32
			c5.12-6.44,5.57-22.15,0.64-28.72c-4.18-5.58-26.32-5.94-30.12-0.12c-5.37,8.22-4.81,17.1-1.34,25.93
			C159.4,402.79,166.31,401.04,173.2,401.14z"/>
		<path class="st3" d="M371.22,406.64c0-13.06-0.02-26.12,0.01-39.18c0.02-9.75,2.56-13.75,10.06-16.07
			c8.77-2.72,16.16-0.36,21.09,6.97c4.93,7.32,6.54,15.9,8.8,24.22c1.38,5.08,2.68,10.18,4.19,15.22c0.52,1.76,1.24,3.87,3.75,3.5
			c2.66-0.4,2.26-2.67,2.26-4.5c0.03-13.5,0.38-27.02-0.14-40.5c-0.25-6.5,3.6-5.25,7.21-5.26c3.62,0,7.5-1.22,7.29,5.24
			c-0.47,14.12-0.13,28.27-0.15,42.4c-0.01,10.41-3.81,15.45-12.89,17.16c-8.8,1.65-17.47-3.3-20.38-12.14
			c-2.76-8.39-4.98-16.97-7.57-25.42c-1.05-3.41-2.34-6.76-3.76-10.04c-0.7-1.61-1.32-4.08-3.78-3.37
			c-1.99,0.57-1.52,2.79-1.52,4.41c-0.03,13.29-0.23,26.59,0.09,39.88c0.11,4.68-1.08,6.38-5.93,6.01
			c-5.66-0.44-11.42-0.49-17.07,0.02c-4.68,0.42-6.12-1.59-7.06-5.7c-2.77-12.11-6.04-24.1-10.26-35.8c-0.71-1.98-1.5-3.93-2.4-5.84
			c-0.68-1.45-1.18-3.67-3.33-3.04c-1.86,0.54-1.77,2.6-1.77,4.32c0.01,9.92,0.01,19.83,0,29.75c-0.02,10.04-3.69,14.97-12.51,16.85
			c-8.55,1.82-17.42-2.66-20.44-11.04c-2.57-7.11-4.27-14.54-6.49-21.78c-1.36-4.42-2.84-8.82-4.53-13.12
			c-0.8-2.04-1.41-5.37-4.05-4.95c-2.94,0.47-1.89,3.79-1.9,5.93c-0.09,12.87-0.44,25.76,0.12,38.6c0.29,6.64-3.5,5.61-7.47,5.74
			c-4.27,0.14-7.54,0.44-7.31-5.9c0.52-14.12,0.14-28.27,0.17-42.4c0.02-8.49,2.54-12.73,8.85-15.11c7.95-2.99,15.82-1.31,20.8,4.62
			c4.32,5.13,6.27,11.4,8.02,17.71c2.15,7.71,4.14,15.46,6.31,23.15c0.62,2.2,1.35,5.11,4.19,4.74c3.35-0.44,2.05-3.66,2.08-5.73
			c0.13-9.91,0.04-19.83,0.06-29.75c0.02-8.41,2.53-12.46,9.1-14.84c7.89-2.85,15.22-1.09,20.06,4.88c3.41,4.2,4.86,9.28,6.32,14.35
			c3.46,12.04,6.92,24.08,10.39,36.13C370.2,406.86,370.71,406.75,371.22,406.64z"/>
		<path class="st3" d="M238.78,401.64c4.26-12.78,8.52-25.51,12.74-38.25c4.29-12.94,4.27-12.95,18.96-10.96
			c-5.67,18.96-11.33,37.86-18.48,56.26c-2.54,6.54-8.59,7.55-14.7,7.51c-6.24-0.03-11.94-1.72-14.19-8.33
			c-6.24-18.28-12.24-36.64-18.68-56.03c4.97,0,9.04,0.04,13.12-0.01c3.31-0.04,3.3,2.67,4.01,4.75
			c4.53,13.33,9.01,26.68,13.59,39.99C235.78,398.38,235.61,400.85,238.78,401.64z"/>
		<path class="st3" d="M453.66,390.29c0-6.75-0.14-13.51,0.05-20.26c0.1-3.41-0.8-5.3-4.56-4.79c-0.62,0.08-1.27,0.01-1.9,0.01
			c-7.21-0.05-10.63-5.36-7.9-12.04c0.79-1.93,2.27-1.59,3.64-1.59c11.82-0.04,23.64,0.02,35.46-0.06c2.54-0.02,3.64,0.54,3.84,3.44
			c0.69,10.04,0.83,10.24-9.15,10.16c-4.13-0.04-5.41,1.18-5.34,5.33c0.24,13.08-0.29,26.19,0.25,39.25
			c0.26,6.47-3.52,5.37-7.2,5.32c-3.55-0.04-7.81,1.38-7.31-5.14C454.05,403.41,453.66,396.84,453.66,390.29z"/>
		<path class="st3" d="M503.69,390.98c0,6.52-0.36,13.07,0.12,19.56c0.36,4.84-2.13,5.37-5.6,4.75c-3.05-0.54-8.11,2.67-8-4.36
			c0.21-13.68,0.13-27.36,0.04-41.04c-0.05-7.05,5.19-3.5,8.2-4.12c3.22-0.67,5.6-0.12,5.35,4.38
			C503.41,377.08,503.69,384.04,503.69,390.98z"/>
		<path class="st3" d="M497.39,364.12c-5.19,1.02-7.45-0.28-7.38-6.33c0.06-5.75,2.29-6.25,7.03-6.3c4.86-0.05,7.12,0.63,6.84,6.34
			C503.65,362.75,503.06,365.68,497.39,364.12z"/>
	</g>
	<g>
		<path class="st2" d="M87.2,373.06c2.47-1.97,2.44-5.16,3.75-7.71c4.62-9.05,11.35-14.34,22.03-13.93
			c8.22,0.31,16.47,0.34,24.68-0.04c5.45-0.25,4.49,3.3,4.19,6.19c-0.3,2.94,2.41,7.77-4.14,7.61c-7.17-0.18-14.35-0.05-21.52-0.03
			c-1.68,0.01-3.42-0.09-5.04,0.27c-5.89,1.29-9.38,9.39-8.68,19.83c0.62,9.23,4.57,15.21,10.69,15.73
			c3.78,0.32,7.59,0.17,11.39,0.26c3.61,0.08,5.51-1.71,5.72-5.26c0.23-3.9-1.76-5.76-5.57-6.18c-1.94-0.22-5.09,1.22-5.58-1.28
			c-0.71-3.63-0.24-7.54,0.01-11.31c0.08-1.16,1.58-1.03,2.61-1.19c11.21-1.77,18.44,2.45,23.66,13.39c0-3.54-0.23-7.1,0.05-10.62
			c0.72-9.16,3.83-17.35,11.16-23.27c7.45-6.02,37.39-5.9,45.03-0.06c4.7,3.59,7.56,8.53,9.35,14c2.69,8.19,2.92,16.64,0.96,24.99
			c-3.37,14.36-11.36,20.5-26.03,20.52c-3.59,0.01-7.18,0-10.76,0c-17.64,0-22.2-3.07-29.26-20.26c-0.64,2.89-1.04,5.15-1.64,7.35
			c-2.25,8.29-7.92,12.74-16.5,12.89c-4.85,0.09-9.71,0.03-14.56,0.02c-12.1-0.04-18.78-4.54-23.36-15.64
			c-0.69-1.67-0.57-3.82-2.64-4.73C87.2,387.42,87.2,380.24,87.2,373.06z M179.73,401.03c4.24-0.63,9.85,1.8,13.92-3.32
			c5.12-6.44,5.57-22.15,0.64-28.72c-4.18-5.58-26.32-5.94-30.12-0.12c-5.37,8.22-4.81,17.1-1.34,25.93
			C165.93,402.69,172.84,400.93,179.73,401.03z"/>
		<path class="st2" d="M377.74,406.53c0-13.06-0.02-26.12,0.01-39.18c0.02-9.75,2.56-13.75,10.06-16.07
			c8.77-2.72,16.16-0.36,21.09,6.97c4.93,7.32,6.54,15.9,8.8,24.22c1.38,5.08,2.68,10.18,4.19,15.22c0.52,1.76,1.24,3.87,3.75,3.5
			c2.66-0.4,2.26-2.67,2.26-4.5c0.03-13.5,0.38-27.02-0.14-40.5c-0.25-6.5,3.6-5.25,7.21-5.26c3.62,0,7.5-1.22,7.29,5.24
			c-0.47,14.12-0.13,28.27-0.15,42.4c-0.01,10.41-3.81,15.45-12.89,17.16c-8.8,1.65-17.47-3.3-20.38-12.14
			c-2.76-8.39-4.98-16.97-7.57-25.42c-1.05-3.41-2.34-6.76-3.76-10.04c-0.7-1.61-1.32-4.08-3.78-3.37
			c-1.99,0.57-1.52,2.79-1.52,4.41c-0.03,13.29-0.23,26.59,0.09,39.88c0.11,4.68-1.08,6.38-5.93,6.01
			c-5.66-0.44-11.42-0.49-17.07,0.02c-4.68,0.42-6.12-1.59-7.06-5.7c-2.77-12.11-6.04-24.1-10.26-35.8c-0.71-1.98-1.5-3.93-2.4-5.84
			c-0.68-1.45-1.18-3.67-3.33-3.04c-1.86,0.54-1.77,2.6-1.77,4.32c0.01,9.92,0.01,19.83,0,29.75c-0.02,10.04-3.69,14.97-12.51,16.85
			c-8.55,1.82-17.42-2.66-20.44-11.04c-2.57-7.11-4.27-14.54-6.49-21.78c-1.36-4.42-2.84-8.82-4.53-13.12
			c-0.8-2.04-1.41-5.37-4.05-4.95c-2.94,0.47-1.89,3.79-1.9,5.93c-0.09,12.87-0.44,25.76,0.12,38.6c0.29,6.64-3.5,5.61-7.47,5.74
			c-4.27,0.14-7.54,0.44-7.31-5.9c0.52-14.12,0.14-28.27,0.17-42.4c0.02-8.49,2.54-12.73,8.85-15.11c7.95-2.99,15.82-1.31,20.8,4.62
			c4.32,5.13,6.27,11.4,8.02,17.71c2.15,7.71,4.14,15.46,6.31,23.15c0.62,2.2,1.35,5.11,4.19,4.74c3.35-0.44,2.05-3.66,2.08-5.73
			c0.13-9.91,0.04-19.83,0.06-29.75c0.02-8.41,2.53-12.46,9.1-14.84c7.89-2.85,15.22-1.09,20.06,4.88c3.41,4.2,4.86,9.28,6.32,14.35
			c3.46,12.04,6.92,24.08,10.39,36.13C376.73,406.75,377.24,406.64,377.74,406.53z"/>
		<path class="st2" d="M245.31,401.53c4.26-12.78,8.52-25.51,12.74-38.25c4.29-12.94,4.27-12.95,18.96-10.96
			c-5.67,18.96-11.33,37.86-18.48,56.26c-2.54,6.54-8.59,7.55-14.7,7.51c-6.24-0.03-11.94-1.72-14.19-8.33
			c-6.24-18.28-12.24-36.64-18.68-56.03c4.97,0,9.04,0.04,13.12-0.01c3.31-0.04,3.3,2.67,4.01,4.75
			c4.53,13.33,9.01,26.68,13.59,39.99C242.31,398.27,242.14,400.74,245.31,401.53z"/>
		<path class="st2" d="M460.19,390.19c0-6.75-0.14-13.51,0.05-20.26c0.1-3.41-0.8-5.3-4.56-4.79c-0.62,0.08-1.27,0.01-1.9,0.01
			c-7.21-0.05-10.63-5.36-7.9-12.04c0.79-1.93,2.27-1.59,3.64-1.59c11.82-0.04,23.64,0.02,35.46-0.06c2.54-0.02,3.64,0.54,3.84,3.44
			c0.69,10.04,0.83,10.24-9.15,10.16c-4.13-0.04-5.41,1.18-5.34,5.33c0.24,13.08-0.29,26.19,0.25,39.25
			c0.26,6.47-3.52,5.37-7.2,5.32c-3.55-0.04-7.81,1.38-7.31-5.14C460.58,403.3,460.19,396.73,460.19,390.19z"/>
		<path class="st2" d="M510.22,390.87c0,6.52-0.36,13.07,0.12,19.56c0.36,4.84-2.13,5.37-5.6,4.75c-3.05-0.54-8.11,2.67-8-4.36
			c0.21-13.68,0.13-27.36,0.04-41.04c-0.05-7.05,5.19-3.5,8.2-4.12c3.22-0.67,5.6-0.12,5.35,4.38
			C509.94,376.97,510.22,383.93,510.22,390.87z"/>
		<path class="st2" d="M503.92,364.02c-5.19,1.02-7.45-0.28-7.38-6.33c0.06-5.75,2.29-6.25,7.03-6.3c4.86-0.05,7.12,0.63,6.84,6.34
			C510.18,362.64,509.59,365.58,503.92,364.02z"/>
	</g>
</g>
</svg>
