<svg xmlns="http://www.w3.org/2000/svg" xmlns:xlink="http://www.w3.org/1999/xlink" width="55" height="40" viewBox="0 0 55 40"><defs><style>.a{fill:#fff;stroke:#707070;}.b{clip-path:url(#a);}.c{fill:#73af00;}.d{fill:#f5f5f5;}</style><clipPath id="a"><rect class="a" width="55" height="40" transform="translate(825 899)"/></clipPath></defs><g class="b" transform="translate(-825 -899)"><g transform="translate(825 891.5)"><path class="c" d="M54.052,45.517H.948A.948.948,0,0,1,0,44.569V10.431a.948.948,0,0,1,.948-.948h53.1a.948.948,0,0,1,.948.948V44.569A.948.948,0,0,1,54.052,45.517Z"/><path class="d" d="M11.38,21.729c.093.6.456.787.77.762a.774.774,0,0,0,.7-.727V19.709a.187.187,0,1,1,.374,0v2.065a.747.747,0,0,0,1.025.694l.187-.075c.017,1.726-.088,3.242-.09,3.27a.374.374,0,0,0,.346.4h.027a.374.374,0,0,0,.373-.347c.009-.121.124-1.783.089-3.622l.113-.045a.375.375,0,0,1,.306.013,1.068,1.068,0,0,0,1.233-.2l.067-.067a1.116,1.116,0,0,0,.271-1.148l-.318-.955A.374.374,0,0,0,17.127,19l-.748-.374a.374.374,0,0,0-.522.453l.6,1.8a.372.372,0,0,1-.09.383l-.067.067a.321.321,0,0,1-.37.06,1.118,1.118,0,0,0-.777-.078A12.892,12.892,0,0,0,14.7,18.1a.374.374,0,0,0-.709.237,12.851,12.851,0,0,1,.428,3.263l-.448.179V19.709a.935.935,0,1,0-1.869,0v1.81l-.381-1.884a.374.374,0,1,0-.733.148Z"/><path class="d" d="M12.1,18.588a.374.374,0,0,0,.374-.374V17.84a.374.374,0,0,0-.748,0v.374A.374.374,0,0,0,12.1,18.588Z"/><path class="d" d="M15.838,18.214h.374a.374.374,0,1,0,0-.748h-.374a.374.374,0,1,0,0,.748Z"/><path class="d" d="M13.4,23.126l-1.869,1.121a.374.374,0,1,0,.385.641l1.869-1.121a.374.374,0,1,0-.385-.641Z"/><path class="d" d="M18.442,23.788l.009-.006a.853.853,0,0,0,.173.351.734.734,0,0,0,.637.247,1.031,1.031,0,0,0,.778-.409.68.68,0,0,0,.079.047A.708.708,0,0,0,20.775,24a1.419,1.419,0,0,0,.669-1.316.382.382,0,0,0-.389-.354.375.375,0,0,0-.358.388s.008.448-.263.613a.91.91,0,0,1-.116-.315.374.374,0,0,0-.743.062c0,.054-.012.534-.383.574a.913.913,0,0,1,0-.489.374.374,0,0,0-.574-.4l-.209.142c-.1-2.168-.327-4.694-.33-4.726a.374.374,0,1,0-.745.068c0,.035.267,2.957.349,5.189l-.057.055a.964.964,0,0,0-.818-.643,1.364,1.364,0,0,0-1.317.833.884.884,0,0,0,.286,1.115,1.246,1.246,0,0,0,1.115.051A3.126,3.126,0,0,1,16.284,26a1.568,1.568,0,0,1-1.194.609.982.982,0,0,1-.726-.31,2.134,2.134,0,0,1-.4-1.338.374.374,0,0,0-.353-.393.366.366,0,0,0-.394.353,2.867,2.867,0,0,0,.587,1.879,1.714,1.714,0,0,0,1.251.555h.075a2.278,2.278,0,0,0,1.715-.87,3.866,3.866,0,0,0,.856-1.916,4.236,4.236,0,0,1-1.794,3.356,1.866,1.866,0,0,1-1.872.137,1.6,1.6,0,0,1-.822-1.581.374.374,0,0,0-.742-.093,2.347,2.347,0,0,0,1.233,2.344,2.541,2.541,0,0,0,1.132.27,2.766,2.766,0,0,0,1.466-.442,4.97,4.97,0,0,0,2.147-3.994C18.455,24.328,18.45,24.064,18.442,23.788Zm-2.254.385c-.067-.044-.015-.185,0-.214a.635.635,0,0,1,.522-.368h.03c.048,0,.175.016.229.3.006.03.011.061.015.092C16.564,24.229,16.285,24.236,16.188,24.173Z"/><path class="d" d="M12.289,27.611a.374.374,0,0,0-.511.133.767.767,0,0,1-.063.089L11.7,27.8a2.514,2.514,0,0,1,.011-1.268.374.374,0,0,0-.722-.193A3.219,3.219,0,0,0,11,28.064c.172.457.435.572.626.588l.05,0a.982.982,0,0,0,.745-.534A.373.373,0,0,0,12.289,27.611Z"/><path class="d" d="M19.187,20.83a.371.371,0,0,0,.231-.08l1.885-1.48a.361.361,0,0,0,.062-.072.936.936,0,1,0-1.074-.083l-1.334,1.047a.374.374,0,0,0,.231.668Zm1.7-2.617a.187.187,0,1,1-.187.187A.187.187,0,0,1,20.884,18.214Z"/><path class="d" d="M20.442,20.476a.373.373,0,0,0-.473.236,1.142,1.142,0,0,0,.146,1.1.754.754,0,0,0,.558.213,1.642,1.642,0,0,0,.516-.1.374.374,0,1,0-.237-.709,1.3,1.3,0,0,1-.305.065.716.716,0,0,1,.031-.342A.373.373,0,0,0,20.442,20.476Z"/><path class="d" d="M24.72,18.931a.374.374,0,0,0,.464-.254l.218-.748a.374.374,0,1,0-.718-.21l-.218.748A.374.374,0,0,0,24.72,18.931Z"/><path class="d" d="M22.541,18.887a.374.374,0,1,0,.377-.645c-.075-.044-.065-.168-.062-.192a.293.293,0,0,1,.172-.25.374.374,0,0,0-.222-.714,1.026,1.026,0,0,0-.692.879A.922.922,0,0,0,22.541,18.887Z"/><path class="d" d="M19.576,24.942a.374.374,0,0,0-.07.741.7.7,0,0,1,.07.38.374.374,0,0,0,.748,0C20.324,24.955,19.606,24.942,19.576,24.942Z"/><path class="d" d="M25.918,23.394a.862.862,0,0,0,.141.011,1.278,1.278,0,0,0,.884-.442.374.374,0,0,0-.529-.529c-.224.224-.344.228-.375.222-.071-.01-.136-.1-.15-.129a.374.374,0,0,0-.666.339A1.011,1.011,0,0,0,25.918,23.394Z"/><path class="d" d="M32.272,20.768l-.006-.016a.374.374,0,0,0-.708.239.837.837,0,0,0,.608.583.626.626,0,0,0,.082.005.915.915,0,0,0,.723-.5.374.374,0,1,0-.622-.415A1.129,1.129,0,0,1,32.272,20.768Z"/><path class="d" d="M31.538,27.559c0-1.594-.07-3.089-.167-4.4a18.929,18.929,0,0,1,1.312,2.662.374.374,0,1,0,.7-.263,24.757,24.757,0,0,0-2.162-4.1c-.2-2.014-.433-3.292-.437-3.314a.374.374,0,0,0-.736.134c0,.016.121.675.262,1.783-.287-.426-.554-.811-.778-1.127l.018.006a.374.374,0,1,0,.237-.709l-1.121-.374a.372.372,0,0,0-.421.136.377.377,0,0,0-.055.115.816.816,0,0,0-.78-.187.636.636,0,0,0-.357.665,3.377,3.377,0,0,0,.258,1.059c.22.623.358,1.082.125,1.3a.409.409,0,0,1-.383.135c-.231-.058-.459-.365-.611-.821a.348.348,0,0,0-.03-.052A6.356,6.356,0,0,0,26.3,18.14a.374.374,0,0,0-.733.147,3.558,3.558,0,0,1-.2,2.664.671.671,0,0,1-.559.253.215.215,0,0,1-.179-.083,3.6,3.6,0,0,1-.2-2.107.374.374,0,0,0-.37-.426c-.643,0-.887.732-1.1,1.377-.094.284-.27.811-.393.866-.226,0-.373-.664-.374-1.122a.374.374,0,0,0-.374-.373h0a.373.373,0,0,0-.373.373c0,.862.294,1.869,1.121,1.869.616,0,.866-.672,1.075-1.3a2.343,2.343,0,0,0,.424,1.328.959.959,0,0,0,.744.341,1.422,1.422,0,0,0,1.137-.527,1.72,1.72,0,0,0,.139-.206,1.4,1.4,0,0,0,.783.588,1.077,1.077,0,0,0,.264.034,1.186,1.186,0,0,0,.814-.348,1.11,1.11,0,0,0,.125-.151,1.008,1.008,0,0,0,.276.042,1.513,1.513,0,0,0,.775-.238.374.374,0,0,0-.4-.63.793.793,0,0,1-.423.111,3.857,3.857,0,0,0-.283-1.228,5.184,5.184,0,0,1-.193-.625c.031.026.061.053.088.079a.374.374,0,0,0,.528,0,.359.359,0,0,0,.054-.082c.387.534,1.184,1.655,2,2.949.157,1.589.294,3.617.294,5.84a.374.374,0,0,0,.748,0Z"/><path class="d" d="M31.911,19.335a.374.374,0,0,0,.748,0,3.812,3.812,0,0,0-.413-1.289.374.374,0,1,0-.669.334A3.319,3.319,0,0,1,31.911,19.335Z"/><path class="d" d="M30.211,27.6a.373.373,0,0,0-.5.165,1.072,1.072,0,0,1-.155.222,2.089,2.089,0,0,1,.1-.691.374.374,0,0,0-.622-.374l-.748.748a.374.374,0,0,0,.529.529l.019-.019a.773.773,0,0,0,.2.393.684.684,0,0,0,.486.214.666.666,0,0,0,.1-.008,1.217,1.217,0,0,0,.758-.677A.373.373,0,0,0,30.211,27.6Z"/><path class="d" d="M30.066,24.592H27.431q.035-.14.072-.266c1.051-.218,1.675-.558,1.859-1.01a.836.836,0,0,0-.141-.839.927.927,0,0,0-.945-.4c-.531.108-1,.68-1.344,1.6a4.3,4.3,0,0,0-2.158.933A5.791,5.791,0,0,0,24,22.118a.374.374,0,0,0-.622.415,5.4,5.4,0,0,1,.685,2.783c0,1.706-1.36,2.99-2.243,2.99-.42,0-.6-.5-.684-.921a4.293,4.293,0,0,0,1.794-1.979,2.973,2.973,0,0,0-.249-2.026l-.028-.065.023.022a.374.374,0,1,0,.528-.529c-.218-.219-.643-.562-1.029-.4a.636.636,0,0,0-.357.665,1.59,1.59,0,0,0,.174.6,2.259,2.259,0,0,1,.211,1.551,3.163,3.163,0,0,1-1.224,1.35.367.367,0,0,0-.283-.137h0a.373.373,0,0,0-.373.373c0,.067,0,.139.007.213a19.657,19.657,0,0,1-2.4,1.316.374.374,0,0,0,.155.714.369.369,0,0,0,.154-.034,21.532,21.532,0,0,0,2.233-1.2,1.454,1.454,0,0,0,1.351,1.229,3.175,3.175,0,0,0,2.5-1.828,2.17,2.17,0,0,0,.25.357,4.213,4.213,0,0,0,2.856,1.1.374.374,0,0,0,.027-.746.8.8,0,0,1-.467-.227.641.641,0,0,1-.122-.491c.038-.461,1.524-.805,2.834-.825a.374.374,0,0,0,.347-.249l.374-1.051a.374.374,0,0,0-.352-.5Zm-1.641-1.785a.136.136,0,0,1,.028,0c.036,0,.092.018.167.119.014.019.06.084.048.112-.043.106-.3.281-.839.439C28.067,23.012,28.3,22.832,28.425,22.807ZM26.167,27.72a2.288,2.288,0,0,1-1.035-.629,1.589,1.589,0,0,1-.332-1.316,1.1,1.1,0,0,1,.078-.158c.526-.048,1.933.159,2.03.562a1.255,1.255,0,0,0-.79.975A1.576,1.576,0,0,0,26.167,27.72Z"/><path class="d" d="M34.135,19.217,33.761,18.1a.374.374,0,0,0-.727.155c.258,2.579.746,7.61.746,8.186,0,.518-.921,1.538-2.41,2.282a.374.374,0,0,0,.334.669c1.36-.68,2.823-1.893,2.823-2.951,0-.552-.382-4.526-.6-6.758A.374.374,0,0,0,34.135,19.217Z"/><path class="d" d="M37.254,22.59a.374.374,0,0,0,.627-.357,1.887,1.887,0,0,1-.054-.726.379.379,0,0,0,.389-.321.374.374,0,0,0-.317-.423.675.675,0,0,0-.616.208.855.855,0,0,0-.188.4l-.433-.433a.374.374,0,0,0-.529.529Z"/><path class="d" d="M38.1,22.98l-1.4,1a.374.374,0,1,0,.436.607l1.4-1a.374.374,0,1,0-.436-.607Z"/><path class="d" d="M37.971,24.385a.374.374,0,0,0,.033.5,1.036,1.036,0,0,1,.076.538.374.374,0,0,0,.36.387h.014a.374.374,0,0,0,.373-.36c.027-.763-.222-1.042-.331-1.126A.374.374,0,0,0,37.971,24.385Z"/><path class="d" d="M41.233,27.138a.374.374,0,0,0,.374-.374c0-.552-.028-1.167-.075-1.808a13.641,13.641,0,0,1,.876,1.628.373.373,0,0,0,.344.227.368.368,0,0,0,.147-.03.374.374,0,0,0,.2-.491,20.568,20.568,0,0,0-1.71-2.949c-.147-1.372-.338-2.716-.487-3.681a.361.361,0,0,0,.233-.058.369.369,0,0,0,.165-.338.365.365,0,0,0,.041.107,1.359,1.359,0,0,1,.136.915.374.374,0,0,0,.29.442.394.394,0,0,0,.076.008.374.374,0,0,0,.366-.3,2.119,2.119,0,0,0-.238-1.468.375.375,0,0,0-.516-.115.37.37,0,0,0-.167.338.362.362,0,0,0-.042-.108l-.631-.981a.374.374,0,0,0-.683.267c.005.029.291,1.67.544,3.647-.287-.4-.573-.8-.851-1.178-.045-.566-.09-1.088-.13-1.521a.379.379,0,0,0,.061-.024.374.374,0,0,0,.167-.5l-.374-.748a.374.374,0,0,0-.706.2c.045.446.091.94.137,1.459-.236-.312-.455-.6-.642-.839a.374.374,0,0,0-.076-.618l-.748-.374a.374.374,0,0,0-.459.568c.02.025.941,1.179,2.042,2.668a30.053,30.053,0,0,1,.139,5.578c-.033.1-.09.215-.144.219-.226.031-.765-.474-1.036-1.015a.52.52,0,0,0-.5-.339c-.4.025-.558.467-.843,1.269a5.263,5.263,0,0,1-.743,1.582,4.246,4.246,0,0,1-.465-1.472.372.372,0,0,0,.722-.126c0-.558-.39-4.8-.608-7.13a.374.374,0,0,0,.215-.465L35.256,18.1a.374.374,0,0,0-.727.154c.254,2.667.73,7.817.745,8.528,0-.006,0-.013,0-.019a.374.374,0,1,0-.74.106c.109.764.388,2.078,1.03,2.292a.624.624,0,0,0,.2.032.735.735,0,0,0,.526-.244,5.39,5.39,0,0,0,.926-1.868c.055-.155.12-.338.181-.495.343.5.941,1.124,1.547,1.076a.917.917,0,0,0,.8-.728,21.052,21.052,0,0,0-.014-4.667c.315.441.63.893.931,1.34.117,1.119.2,2.241.2,3.162A.374.374,0,0,0,41.233,27.138Z"/><path class="d" d="M44.07,25.172c-.265-1.973-.634-4.258-.867-5.66a.368.368,0,0,0,.313-.066.373.373,0,0,0,.07-.524l-.678-.888a.374.374,0,0,0-.665.291c.007.038.673,3.876,1.086,6.947a3.5,3.5,0,0,1-.615,2.8,1.654,1.654,0,0,1-1.371.511.374.374,0,1,0-.047.746c.063,0,.125.006.187.006a2.359,2.359,0,0,0,1.778-.753A4.174,4.174,0,0,0,44.07,25.172Z"/><path class="d" d="M39.958,27.636a.379.379,0,0,0,.018.525.157.157,0,0,1,.045.077.175.175,0,0,1-.057.084.374.374,0,1,0,.529.529.848.848,0,0,0,.275-.638.89.89,0,0,0-.293-.609A.371.371,0,0,0,39.958,27.636Z"/><path class="d" d="M38.64,35.834H36.023V35.46a.374.374,0,1,0-.748,0v.374H15.464a5.218,5.218,0,0,0,3.364,1.121H35.276V37.7a.374.374,0,0,0,.374.374h2.99a1.121,1.121,0,1,0,0-2.243Zm0,1.5H36.023v-.374h2.99l-.067-.2a.363.363,0,0,1,.067.2A.374.374,0,0,1,38.64,37.329Z"/></g></g></svg>